<svg width="260" height="162" viewBox="0 0 260 162" fill="none" xmlns="http://www.w3.org/2000/svg">
<path d="M29.434 83.3143H53.9623V106.457H29.434V83.3143Z" fill="white"/>
<path d="M29.434 111.086H53.9623V134.229H29.434V111.086Z" fill="white"/>
<path d="M0 83.3143H24.5283V106.457H0V83.3143Z" fill="white"/>
<path d="M0 111.086H24.5283V134.229H0V111.086Z" fill="white"/>
<path d="M0 138.857H24.5283V162H0V138.857Z" fill="white"/>
<path d="M29.434 138.857H53.9623V162H29.434V138.857Z" fill="white"/>
<path d="M117.736 83.3143H142.264V106.457H117.736V83.3143Z" fill="white"/>
<path d="M117.736 111.086H142.264V134.229H117.736V111.086Z" fill="white"/>
<path d="M58.8679 27.7714H83.3962V50.9143H58.8679V27.7714Z" fill="white"/>
<path d="M176.604 138.857H201.132V162H176.604V138.857Z" fill="white"/>
<path d="M0 55.5429H24.5283V78.6857H0V55.5429Z" fill="white"/>
<path d="M29.434 55.5429H53.9623V78.6857H29.434V55.5429Z" fill="white"/>
<path d="M29.434 27.7714H53.9623V50.9143H29.434V27.7714Z" fill="white"/>
<path d="M0 27.7714H24.5283V50.9143H0V27.7714Z" fill="white"/>
<path d="M29.434 0H53.9623V23.1429H29.434V0Z" fill="white"/>
<path d="M0 0H24.5283V23.1429H0V0Z" fill="white"/>
<path d="M58.8679 55.5429H83.3962V78.6857H58.8679V55.5429Z" fill="white"/>
<path d="M88.3019 55.5429H112.83V78.6857H88.3019V55.5429Z" fill="white"/>
<path d="M88.3019 83.3143H112.83V106.457H88.3019V83.3143Z" fill="white"/>
<path d="M147.17 111.086H171.698V134.229H147.17V111.086Z" fill="white"/>
<path d="M147.17 138.857H171.698V162H147.17V138.857Z" fill="white"/>
<path d="M176.604 55.5429H201.132V78.6857H176.604V55.5429Z" fill="white"/>
<path d="M176.604 83.3143H201.132V106.457H176.604V83.3143Z" fill="white"/>
<path d="M147.17 55.5429H171.698V78.6857H147.17V55.5429Z" fill="white"/>
<path d="M147.17 83.3143H171.698V106.457H147.17V83.3143Z" fill="white"/>
<path d="M88.3019 138.857H112.83V162H88.3019V138.857Z" fill="white"/>
<path d="M117.736 111.086H142.264V134.229H117.736V111.086Z" fill="white"/>
<path d="M147.17 83.3143H171.698V106.457H147.17V83.3143Z" fill="white"/>
<path d="M176.604 55.5429H201.132V78.6857H176.604V55.5429Z" fill="white"/>
<path d="M206.038 27.7714H230.566V50.9143H206.038V27.7714Z" fill="white"/>
<path d="M235.472 0H260V23.1429H235.472V0Z" fill="white"/>
<path d="M88.3019 0H112.83V23.1429H88.3019V0Z" fill="white"/>
<path d="M117.736 27.7714H142.264V50.9143H117.736V27.7714Z" fill="white"/>
<path d="M147.17 55.5429H171.698V78.6857H147.17V55.5429Z" fill="white"/>
<path d="M176.604 83.3143H201.132V106.457H176.604V83.3143Z" fill="white"/>
<path d="M206.038 111.086H230.566V134.229H206.038V111.086Z" fill="white"/>
<path d="M235.472 138.857H260V162H235.472V138.857Z" fill="white"/>
</svg>
